<!-- icon666.com - MILLIONS vector ICONS FREE --><svg version="1.1" id="Capa_1" xmlns="http://www.w3.org/2000/svg" xmlns:xlink="http://www.w3.org/1999/xlink" x="0px" y="0px" viewBox="0 0 512 512" style="enable-background:new 0 0 512 512;" xml:space="preserve"><path style="fill:#FFEE4E;" d="M359.627,295.041c-65.678,0-119.111-53.432-119.111-119.109c0-65.678,53.433-119.111,119.111-119.111 c65.677,0,119.11,53.433,119.11,119.111C478.737,241.609,425.305,295.041,359.627,295.041z"></path><path style="fill:#A5F6FF;" d="M392.863,216.905c-17.91,0-35.338,3.96-51.252,11.56c-22.083-41.31-65.632-68.019-113.375-68.019 c-29.416,0-58.169,10.2-80.958,28.719c-18.866,15.331-33.028,35.803-40.762,58.622c-0.935-0.025-1.87-0.038-2.802-0.038 C46.526,247.751,0,294.277,0,351.464c0,57.188,46.526,103.715,103.715,103.715h289.148c65.693,0,119.137-53.444,119.137-119.137 S458.556,216.905,392.863,216.905z"></path><path style="fill:#00E2FF;" d="M392.863,216.905c-17.91,0-35.338,3.96-51.252,11.56c-20.172-37.736-58.262-63.275-101.095-67.413 v294.126h152.347c65.693,0,119.137-53.444,119.137-119.137S458.556,216.905,392.863,216.905z"></path></svg>